<?xml version="1.0" encoding="utf-8"?>
<!-- Generator: Adobe Illustrator 18.1.1, SVG Export Plug-In . SVG Version: 6.00 Build 0)  -->
<!DOCTYPE svg PUBLIC "-//W3C//DTD SVG 1.1//EN" "http://www.w3.org/Graphics/SVG/1.1/DTD/svg11.dtd">
	<svg version="1.1" id="Calque_1" xmlns="http://www.w3.org/2000/svg" xmlns:xlink="http://www.w3.org/1999/xlink" x="0px" y="0px" viewBox="0 0 47 13.5" enable-background="new 0 0 47 13.5" xml:space="preserve">
		<g>
			<path fill="#00CC99" d="M10.2,6.6C12,7,12.9,8,12.9,8.8c0,3.6-6.3,4.2-8.9,4.2c-0.7,0-2.9,0-2.9-1c0-0.4,0.6-1.3,0.9-1.6c0.2-0.2,1.3-0.5,1.5-0.5c0.1,0,0.1,0,0.1,0.1c0,0.2-0.2,0.3-0.3,0.3c-0.1,0.1-0.2,0.2-0.3,0.3v0c6.4,0.2,8.2-1.6,8.2-1.9c0-0.9-5-1.6-5.9-1.8C4.5,6.8,3.6,6.5,3.6,5.4c0-0.6,0.3-1.9,0.6-2.4C4.7,2.1,8,0.4,11.9,0.4c0.8,0,1.5,0.1,2.3,0.3c0.4,0.1,0.5,0.2,0.5,0.6c0,1.3-0.5,1.6-1.5,2.1c-0.8,0.3-0.9,0.4-1.6,0.9c-0.1,0.1-0.3,0.2-0.5,0.2c-0.2,0-0.3-0.1-0.3-0.3c0,0,0.3-0.6,1.3-1.3l0,0C7.4,2.9,5.4,4.6,5.4,5C5.4,5.3,5.2,5.4,10.2,6.6z"/>
			<path fill="#00CC99" d="M20.5,10c-1.1,1.3-3.1,3-4.9,3c-1.3,0-1.9-1.2-2-2.4c-0.1-2.4,2.5-4.8,4.9-4.8c0.6,0,1.3,0.1,1.3,0.9c0,0.9-0.9,2.2-4.3,3.3l0,0.4c-0.1,0.7,0.5,0.9,1.1,0.9c1.3,0,2.8-1.3,3.7-2.1L20.5,10z M18.3,7.1c0-0.1-0.1-0.2-0.2-0.2c-0.9,0.2-1.9,1.1-2.4,2.3C17.2,8.7,18.3,7.5,18.3,7.1z"/>
			<path fill="#00CC99" d="M22.2,9.3c-0.4,0.3-0.7,0.6-0.7,1.1c0,0.4,0.4,1,1.4,1c1.4,0,2.9-1.3,4-2.1l0.2,0.7c-1.1,1.2-3.1,3-4.8,3c-1.4,0-2.1-1.3-2.1-2.6c0-1.5,0.5-2.1,1.7-3c0.8-0.6,2.5-1.6,3.5-1.6c0.6,0,0.8,0.3,0.8,0.8c0,1-1.4,2.4-1.9,2.4c-0.4,0-0.6-0.5-0.6-0.8L22.2,9.3z"/>
			<path fill="#00CC99" d="M34,10c-0.8,1-1.6,1.5-2.9,1.5c-0.8,0.8-1.6,1.4-2.8,1.4c-0.9,0-1.8-0.9-1.9-2.6c0-1.4,0.6-2.3,1.6-3c1-0.8,2.3-1.3,3.4-1.3c0.4,0,1,0.2,1,0.6c0,0.3-0.2,0.4-0.4,0.5c0.5,0.1,0.6,0.5,0.6,1.1c0,0.8-0.4,1.4-0.7,2.1c0.8,0.1,1.3-0.5,1.9-1L34,10z M28.6,9.2c-0.4,0.4-0.7,1.1-0.7,1.7c0,0.5,0.3,0.7,0.8,0.7c0.6,0,1-0.3,1.4-0.7c-0.1-0.3-0.2-0.5-0.2-0.8c0-0.9,0.8-2.1,0.8-2.1C29.9,8.2,29.1,8.7,28.6,9.2z"/>
			<path fill="#00CC99" d="M39.9,11.6c-0.4,0.4-1.1,1.1-1.7,1.1c-0.4,0-0.8-0.3-0.8-0.8c0-0.5,0.4-1.4,1.6-3.1c0,0,0.1-0.2,0.1-0.2c0-0.1-0.1-0.1-0.1-0.1c-0.2,0-0.6,0.4-0.7,0.6c-0.9,1-1.9,2.1-2.8,3.1c-0.2,0.2-0.5,0.5-0.8,0.5c-0.9,0-1.1-1.4-1.1-2.1c0-1.8,1.9-4.2,3-4c0.3,0,0.8,0,0.8,0.4c0,0.4-0.5,0.9-0.7,1.2c-0.3,0.4-0.7,0.7-1,1.1c-0.2,0.3-0.5,0.6-0.5,0.9c0,0,0.1,0.2,0.1,0.2c0.1,0,0.3-0.2,0.4-0.3C36.6,9.2,39.8,6,41,6c0.5,0,0.7,0.4,0.7,0.8c0,0.8-1.3,2.3-1.7,3l0,0l4-3.2c0.2-0.1,0.6-0.5,0.8-0.5c0.1,0,0.3,0.4,0.4,0.5c0.1,0.2,0.3,0.5,0.3,0.7c0,0.3-0.4,0.7-0.6,0.9c-1.4,1.5-1.5,1.8-1.5,2.3c0,0.2,0.2,0.5,0.4,0.5c0.4-0.1,0.6-0.1,2.8-1.6l0.1,0.8C46,10.9,43.4,13,42.4,13c-0.5,0-0.9-0.5-0.9-1c0-0.9,0.9-2.2,1.3-2.9l0,0L39.9,11.6z"/>
		</g>
</svg>